<?xml version="1.0" encoding="iso-8859-1"?>
<!-- Uploaded to: SVG Repo, www.svgrepo.com, Generator: SVG Repo Mixer Tools -->
<!DOCTYPE svg PUBLIC "-//W3C//DTD SVG 1.1//EN" "http://www.w3.org/Graphics/SVG/1.1/DTD/svg11.dtd">
<svg fill="#000000" height="800px" width="800px" version="1.1" id="Capa_1" xmlns="http://www.w3.org/2000/svg" xmlns:xlink="http://www.w3.org/1999/xlink" 
	 viewBox="0 0 372 372" xml:space="preserve">
<g>
	<path d="M186,0C83.439,0,0,83.439,0,186s83.439,186,186,186s186-83.439,186-186S288.561,0,186,0z M256.968,189v-72h6.667v72
		H256.968z M346.43,213.156v6.938H233.582v-6.938H346.43z M311.293,189v-48h6.666v48H311.293z M186,20c91.533,0,166,74.467,166,166
		c0,2.398-0.063,4.782-0.164,7.156h-13.877V131c0-5.522-4.478-10-10-10h-26.666c-5.522,0-10,4.478-10,10v62.156h-7.658V107
		c0-5.522-4.478-10-10-10h-26.667c-5.522,0-10,4.478-10,10v86.156h-13.386c-5.522,0-10,4.478-10,10V223.5H24.272
		C21.478,211.445,20,198.892,20,186C20,94.467,94.467,20,186,20z M41.896,268.333h126.73c5.523,0,10-4.478,10-10s-4.477-10-10-10
		H32.157c-0.651-1.6-1.282-3.209-1.884-4.833h289.824c-1.936,1.54-4.011,3.16-6.194,4.833h-90.32c-5.522,0-10,4.478-10,10
		s4.478,10,10,10h62.002c-2.447,1.589-4.954,3.185-7.531,4.783c-0.098-0.003-0.193-0.015-0.292-0.015h-38.802
		c-5.522,0-10,4.478-10,10s4.478,10,10,10h2.849c-41.619,20.077-97.445,37.202-154.918,25.985
		C68.642,305.462,53.279,288.178,41.896,268.333z M186,352c-19.294,0-37.824-3.32-55.064-9.4c17.363-0.468,35.136-2.886,53.195-7.26
		c28.504-6.905,57.779-18.664,87.014-34.952c28.332-15.785,50.919-32.597,65.336-44.356C310.021,312.662,252.523,352,186,352z"/>
	<path d="M113.465,148.642c1.839,0.271,3.667,0.402,5.473,0.402c18.217,0,34.217-13.379,36.951-31.928
		c3.005-20.387-11.137-39.419-31.525-42.425c-20.394-2.996-39.419,11.138-42.424,31.525
		C78.936,126.604,93.078,145.636,113.465,148.642z M101.727,109.133c1.271-8.623,8.708-14.842,17.177-14.842
		c0.839,0,1.689,0.062,2.544,0.187c9.478,1.397,16.052,10.245,14.655,19.723c-1.396,9.477-10.243,16.044-19.722,14.655
		C106.904,127.458,100.33,118.61,101.727,109.133z"/>
</g>
</svg>